# xmcd CD database file
#
# Track frame offsets:
#	150
#	11536
#	36408
#	62846
#	72575
#	120488
#	143321
#	151294
#	177857
#	205220
#	232408
#
# Disc length: 3226 seconds
#
# Revision: 0
# Processed by: cddbd v1.5.2PL0 Copyright (c) Steve Scherf et al.
# Submitted via: CDex 1.70beta2
#
DISCID=990c980b
DTITLE=FM Trio - Ligne Libre
DYEAR=2010
DGENRE=Jazz
TTITLE0=Durst
TTITLE1=Grains And Dots
TTITLE2=Vue Miniature
TTITLE3=Decandance
TTITLE4=Ligne Libre
TTITLE5=Das Hotel
TTITLE6=Speisekammer
TTITLE7=Empty
TTITLE8=Hope And Despair
TTITLE9=Le Grand Souffleur
TTITLE10=La Modestie
EXTD=YEAR: 2010
EXTT0=
EXTT1=
EXTT2=
EXTT3=
EXTT4=
EXTT5=
EXTT6=
EXTT7=
EXTT8=
EXTT9=
EXTT10=
PLAYORDER=
